<svg xmlns="http://www.w3.org/2000/svg" width="543.002" height="279.501" viewBox="0 0 543.002 279.501">
  <path id="中マド_5" data-name="中マド 5" d="M543.006,279.5h-264.1L126.567,126.031h39.171V110.957H111.5L.01,0,264.094,0,416.449,153.469H377.275v15.077h54.238L543,279.495Zm-284.458,0H15.062l.008-153.469h89.8L258.541,279.495ZM.01,279.5H0v0L.01,0Zm527.928-36.181-.006-.006L453.21,168.546h74.729v74.774Zm0-89.847h0l-89.793,0L284.466,0H527.939v153.47ZM89.8,110.957H15.07l0-74.773L89.8,110.951Z" transform="translate(-0.003 0.001)" fill="#131d46"/>
</svg>
