<svg xmlns="http://www.w3.org/2000/svg" width="824.141" height="305.828" viewBox="0 0 824.141 305.828">
  <path id="中マド_8" data-name="中マド 8" d="M784.147,305.828v0H387.793L220.419,137.9h43.037V121.4H203.866L81.372,0H371.513L538.906,167.922H495.869v16.495H555.46l122.489,121.4.005.005V0H784.147V305.828Zm-702.792,0v0H-39.994V0H81.372l-.016,305.825Zm284.068,0H97.909L97.92,137.9h98.663l168.835,167.92ZM661.4,266.234l-.005-.005-82.1-81.812h82.1v81.817Zm0-98.312h-.006v0l-98.651,0L393.9,0H661.4ZM180.029,121.4H97.921l0-81.817,82.1,81.812Z" transform="translate(39.994)" fill="#131d46"/>
</svg>
