<svg xmlns="http://www.w3.org/2000/svg" xmlns:xlink="http://www.w3.org/1999/xlink" width="196" height="503" viewBox="0 0 196 503">
  <defs>
    <clipPath id="clip-path">
      <rect id="長方形_1285" data-name="長方形 1285" width="167" height="503" transform="translate(-4182 922.037)" fill="#fff"/>
    </clipPath>
    <linearGradient id="linear-gradient" x1="0.5" x2="0.5" y2="1" gradientUnits="objectBoundingBox">
      <stop offset="0" stop-color="#0d1e5f"/>
      <stop offset="1" stop-color="#070707"/>
    </linearGradient>
    <linearGradient id="linear-gradient-2" x1="0.268" y1="0.355" x2="0.927" y2="0.861" gradientUnits="objectBoundingBox">
      <stop offset="0" stop-color="#070707"/>
      <stop offset="1" stop-color="#0d1e5f"/>
    </linearGradient>
    <linearGradient id="linear-gradient-3" x1="0.5" y1="0" x2="0.5" y2="1" xlink:href="#linear-gradient-2"/>
    <linearGradient id="linear-gradient-4" x1="0.575" y1="0.972" x2="0.5" y2="-0.073" xlink:href="#linear-gradient-2"/>
    <linearGradient id="linear-gradient-5" x2="1.111" y2="0" xlink:href="#linear-gradient"/>
  </defs>
  <g id="グループ_1453" data-name="グループ 1453" transform="translate(-706 -3671)">
    <g id="マスクグループ_9" data-name="マスクグループ 9" transform="translate(4888 2748.963)" clip-path="url(#clip-path)">
      <g id="グループ_1433" data-name="グループ 1433" transform="translate(-4206.456 922.801)">
        <path id="パス_99" data-name="パス 99" d="M145.009,55.524v104.6c0,57.307,3.059,45.049-72.985,45.049-39.878,0-57.84,1.854-66.233-2.845-7.5-4.178-5.735-14.71-5.735-39.167,0-49.615.372-107.522,0-107.636-.585-.179,51.527,0,51.527,0v89.414c-.109,16.707.778,23.389,20.441,23.389S93.7,162.09,93.375,146.945V55.524Z" transform="translate(32.294 295.549)" fill="url(#linear-gradient)"/>
        <path id="パス_100" data-name="パス 100" d="M81.2,0l94.865,129.956-9.276,13.752-10.458,15.505L0,120.333,22.989,86.25l63.963,3.605L58.107,34.24Z" transform="matrix(0.559, 0.829, -0.829, 0.559, 131.994, 107.457)" fill="url(#linear-gradient-2)"/>
        <rect id="長方形_1282" data-name="長方形 1282" width="41.268" height="151.875" transform="translate(32.17 174.741)" fill="url(#linear-gradient-3)"/>
        <rect id="長方形_1283" data-name="長方形 1283" width="41.268" height="151.875" transform="translate(136.052 174.741)" fill="url(#linear-gradient-4)"/>
        <g id="グループ_1432" data-name="グループ 1432" transform="translate(24.456 0)">
          <path id="パス_101" data-name="パス 101" d="M-450.908,1489.669v149.42h-87.966Z" transform="translate(538.874 -1489.669)" fill="url(#linear-gradient-5)"/>
          <rect id="長方形_1284" data-name="長方形 1284" width="69.729" height="149.42" transform="translate(87.965)" fill="url(#linear-gradient-3)"/>
        </g>
      </g>
    </g>
    <rect id="長方形_1298" data-name="長方形 1298" width="29" height="29" transform="translate(873 3792)" fill="url(#linear-gradient-3)"/>
    <rect id="長方形_1299" data-name="長方形 1299" width="29" height="29" transform="translate(873 3970)" fill="url(#linear-gradient-3)"/>
    <rect id="長方形_1300" data-name="長方形 1300" width="29" height="29" transform="translate(873 4144)" fill="url(#linear-gradient-3)"/>
  </g>
</svg>
