<svg xmlns="http://www.w3.org/2000/svg" width="213.655" height="577.619" viewBox="0 0 213.655 577.619">
  <path id="中マド_9" data-name="中マド 9" d="M537.625,213.655v0H259.831L142.523,96.339h30.163V84.815H130.921L45.068,0H248.42L365.741,117.313H335.578v11.523h41.766l85.849,84.814,0,0V0h74.428V213.655Zm-492.568,0v0H-39.994V0H45.068l-.011,213.653Zm199.1,0H56.659l.007-117.315h69.15L244.148,213.65Zm207.442-27.658,0,0-57.54-57.155h57.544v57.159Zm0-68.682h0v0l-69.142,0L264.112,0H451.594Zm-337.38-32.5H56.667l0-57.159,57.54,57.155Z" transform="translate(0 537.625) rotate(-90)" fill="#e0e1e5"/>
</svg>
