<svg xmlns="http://www.w3.org/2000/svg" width="351.481" height="105.984" viewBox="0 0 351.481 105.984">
  <g id="グループ_1346" data-name="グループ 1346" transform="translate(-106.128 -107.244)">
    <g id="グループ_1345" data-name="グループ 1345" transform="translate(106.378 107.494)">
      <path id="パス_4" data-name="パス 4" d="M73.027,29.555v-2.1a9.75,9.75,0,0,1-6.4-2.516,15.98,15.98,0,0,1-3.67-5.976L37.693-41.114H35.805L13.472,11.521q-.839,1.782-1.363,2.988t-.734,1.835a43.9,43.9,0,0,1-2.149,4.771A15.464,15.464,0,0,1,7.5,23.788a11,11,0,0,1-7.13,3.67v2.1H21.651v-2.1q-7.864-.315-7.864-5.347,0-2.726,2.936-9.332l3.25-7.654H46.6l4.718,11.429q2.2,5.243,2.2,6.92,0,3.775-7.759,3.984v2.1ZM45.452,2.084H21.231L33.394-26.75Z" transform="translate(-0.366 41.114)" fill="#fff" stroke="#fff" stroke-width="0.5"/>
      <path id="パス_1" data-name="パス 1" d="M18.3-6.525l-.146-4.558H.86L.714-6.525H1.3a5.8,5.8,0,0,1,.774-2.44,2.483,2.483,0,0,1,1.476-1.1,9.852,9.852,0,0,1,1.958-.117h2.6V4.047q0,2.576-.555,3.1a2.321,2.321,0,0,1-1.695.527H5.009v.584h8.912V7.677h-.789A3.013,3.013,0,0,1,11.7,7.413q-.847-.5-.847-3.366V-10.177h2.922a4.1,4.1,0,0,1,2.688.672,5.066,5.066,0,0,1,1.286,2.98ZM39.723,8.261V7.677a5.711,5.711,0,0,1-3.3-1.315,17.067,17.067,0,0,1-2.367-2.776q-3.39-4.617-3.945-4.88a7.339,7.339,0,0,0,3.565-1.519,4.241,4.241,0,0,0,1.578-3.419A4.156,4.156,0,0,0,34.2-9.067a6.04,6.04,0,0,0-3.3-1.841,18.358,18.358,0,0,0-3.857-.321q-.935,0-2.031.015t-2.323.044l-2.747.088v.584h.526a3.875,3.875,0,0,1,1.519.234q.818.438.818,3.3V4.024a9,9,0,0,1-.234,2.6q-.409,1.052-2.045,1.052h-.672v.584h8.8V7.677H27.8a2.76,2.76,0,0,1-1.432-.292q-.818-.468-.818-3.36V-.914h.614A1.851,1.851,0,0,1,27.1-.68q.088.058.278.219t.482.424q.643.584.95.891l.336.336q.731.993,1.461,1.958t1.461,1.958q2.221,2.951,2.484,3.156ZM27.275-10.323q4.792,0,4.792,4.3a5.833,5.833,0,0,1-.234,1.666,3.452,3.452,0,0,1-1.695,1.87,9.926,9.926,0,0,1-4.179.789l-.175-.175-.234-.234v-8.036A10.915,10.915,0,0,1,27.275-10.323ZM60.061,8.261V7.677a2.717,2.717,0,0,1-1.782-.7A4.453,4.453,0,0,1,57.256,5.31L50.214-11.434h-.526L43.464,3.235q-.234.5-.38.833t-.2.511a12.235,12.235,0,0,1-.6,1.33,4.309,4.309,0,0,1-.482.745,3.067,3.067,0,0,1-1.987,1.023v.584h5.932V7.677q-2.192-.088-2.192-1.49a7.766,7.766,0,0,1,.818-2.6l.906-2.133H52.7l1.315,3.185a6.7,6.7,0,0,1,.614,1.929q0,1.052-2.162,1.11v.584ZM52.376.605h-6.75l3.39-8.036ZM69.47-11.2q-.643,0-1.914.029t-3.229.088L61.259-11v.584H61.9a3.972,3.972,0,0,1,1.549.234q.789.438.789,3.3v10.9a14.367,14.367,0,0,1-.117,2.338,1.229,1.229,0,0,1-.409.76,2.351,2.351,0,0,1-1.724.555h-.76v.584H69.82q1.081,0,1.987-.058t1.636-.175A8.823,8.823,0,0,0,78.587,5.4a9.41,9.41,0,0,0,2.455-6.779,10.565,10.565,0,0,0-1.286-5.23,8.234,8.234,0,0,0-4.412-3.74A17.114,17.114,0,0,0,69.47-11.2Zm.065.906A8.067,8.067,0,0,1,75.541-8.1q2.315,2.4,2.315,6.925a10.39,10.39,0,0,1-.879,4.5,6.663,6.663,0,0,1-2.139,2.6A7.921,7.921,0,0,1,70,7.414a5.482,5.482,0,0,1-1.612-.175,3.039,3.039,0,0,1-.586-.614,3.817,3.817,0,0,1-.82-1.987v-14.7q.674-.117,1.319-.175T69.535-10.294ZM92.087,8.261V7.677h-.643a2.865,2.865,0,0,1-1.578-.365,1.942,1.942,0,0,1-.672-1.5,3.085,3.085,0,0,1-.029-.555V-6.963a12.88,12.88,0,0,1,.146-2.367,1.694,1.694,0,0,1,.38-.7,2.863,2.863,0,0,1,1.841-.468h.555v-.584H83.5v.584h.555a3.329,3.329,0,0,1,1.636.321,1.858,1.858,0,0,1,.7,1.461q.029.146.029,1.753V4.024q0,2.63-.555,3.156a2.6,2.6,0,0,1-1.724.5H83.5v.584ZM114-10.5v-.584h-6.867v.584a4.753,4.753,0,0,1,.643.044q.321.044.672.1a1.938,1.938,0,0,1,1.461.906,4.916,4.916,0,0,1,.234,1.812V3.732L98.515-11.083H93.022v.584a5.542,5.542,0,0,1,1.11.088,2.275,2.275,0,0,1,1.695,1.052A4.686,4.686,0,0,1,96.353-7.4V4.462a8.368,8.368,0,0,1-.117,1.9,1.973,1.973,0,0,1-1.4,1.052,4.833,4.833,0,0,1-1.4.263v.584h6.984V7.677a4.682,4.682,0,0,1-1.49-.234,2.406,2.406,0,0,1-1.315-.789,5.407,5.407,0,0,1-.263-2.192V-8.219L110.554,8.612h.555V-7.518a4.836,4.836,0,0,1,.2-1.782,2,2,0,0,1,1.373-.964A6.058,6.058,0,0,1,114-10.5Zm2.484,9.409a9.35,9.35,0,0,0,2.476,6.575,9.8,9.8,0,0,0,7.689,3.156,12.278,12.278,0,0,0,3.99-.666A27.262,27.262,0,0,1,134.018,7V3.031q0-.877.015-1.4a5.327,5.327,0,0,1,.044-.672A1.639,1.639,0,0,1,135.3-.417a4.69,4.69,0,0,1,1.14-.146v-.614h-7.86v.614h.409a3.288,3.288,0,0,1,1.4.2A1.588,1.588,0,0,1,131.184.81a8.6,8.6,0,0,1,.088,1.519,16.023,16.023,0,0,1-.2,3.886,4.329,4.329,0,0,1-1.812,1.14,6.387,6.387,0,0,1-2.367.438,6.452,6.452,0,0,1-5.61-3.268,11.037,11.037,0,0,1-1.519-6.155,11.129,11.129,0,0,1,1.578-6.185,6.068,6.068,0,0,1,5.435-2.83,6.072,6.072,0,0,1,4.354,1.636,7.91,7.91,0,0,1,2.221,4.149h.584l-.263-6.282h-.584a2.781,2.781,0,0,1-.19.862.945.945,0,0,1-.307.394,1.052,1.052,0,0,1-.7.292,11.472,11.472,0,0,0-2.893-1.549,8.517,8.517,0,0,0-2.513-.351,9.222,9.222,0,0,0-8.065,4.325A10.7,10.7,0,0,0,116.486-1.09ZM154.5,5.456l-.468-.2q-.526,1.695-1.9,1.695a2.7,2.7,0,0,1-1.958-.993,4.845,4.845,0,0,1-.672-.789q-.351-.5-.789-1.227a16.257,16.257,0,0,0,.891-1.593q.424-.862.833-1.856a11.067,11.067,0,0,1,1.4-2.893,3.2,3.2,0,0,1,1.549-.818v-.584H148.57v.584a1.543,1.543,0,0,1,1.4,1.753,9.164,9.164,0,0,1-1.695,4.675q-.847-1.49-1.695-3.054t-1.724-3.229q3.506-2.221,3.506-4.7a3.228,3.228,0,0,0-.964-2.425,3.015,3.015,0,0,0-2.162-.906,3.264,3.264,0,0,0-2.571,1.227,4.437,4.437,0,0,0-1.052,3.039,10.393,10.393,0,0,0,1.14,4.237,14.849,14.849,0,0,0-2.893,2.63,6.353,6.353,0,0,0-1.373,3.916,4.866,4.866,0,0,0,1.695,3.828,3.763,3.763,0,0,0,2.542.935q2.308,0,4.617-2.776,1.9,2.776,3.974,2.776Q153.829,8.7,154.5,5.456ZM146.554-7.752a4.764,4.764,0,0,1-2.425,3.945,11.9,11.9,0,0,1-1.11-3.974,2.913,2.913,0,0,1,.511-1.739,1.541,1.541,0,0,1,1.3-.716,1.435,1.435,0,0,1,1.257.716A3.166,3.166,0,0,1,146.554-7.752Zm-.2,12.974q-1.49,1.929-2.864,1.929a2.624,2.624,0,0,1-2.192-1.315,5.451,5.451,0,0,1-.906-3.068,5.7,5.7,0,0,1,2.455-4.588q.614,1.315,1.49,3.068T146.349,5.222Zm28.87.526-.2-3.506-.351-.029a11.032,11.032,0,0,1-.555,1.359q-.321.657-.7,1.271a6.1,6.1,0,0,1-5.435,2.776,6.232,6.232,0,0,1-5.61-3.156,10.166,10.166,0,0,1-1.432-5.61A12.3,12.3,0,0,1,162.3-7.313a5.817,5.817,0,0,1,5.347-3.3q5.377,0,6.808,6.253h.5l-.292-6.954h-.584a3.132,3.132,0,0,1-.438,1.344,1.937,1.937,0,0,1-.526.584q-.088-.058-.234-.146t-.38-.234a8.495,8.495,0,0,0-4.792-1.432,11.482,11.482,0,0,0-2.834.38,10.57,10.57,0,0,0-3.448,1.4,8.288,8.288,0,0,0-2.805,3.711,11.783,11.783,0,0,0-.935,4.617,9.751,9.751,0,0,0,2.338,6.633,8.953,8.953,0,0,0,7.159,3.1,7.526,7.526,0,0,0,5.026-1.753,3.353,3.353,0,0,1,.993.76A5.975,5.975,0,0,0,175.219,5.748Zm23.026-7.217a9.856,9.856,0,0,0-2.805-7.188,9.607,9.607,0,0,0-7.13-2.834,9.868,9.868,0,0,0-7.247,2.805A9.679,9.679,0,0,0,178.229-1.5,10.063,10.063,0,0,0,181,5.807a9.6,9.6,0,0,0,7.217,2.834,9.716,9.716,0,0,0,7.217-2.834A9.9,9.9,0,0,0,198.245-1.469Zm-3.273.19a11.828,11.828,0,0,1-1.4,6.175A6.339,6.339,0,0,1,182.9,4.867a12.588,12.588,0,0,1-1.4-6.38,12.2,12.2,0,0,1,1.373-6.2,5.682,5.682,0,0,1,5.289-2.927A5.837,5.837,0,0,1,193.6-7.689,12.88,12.88,0,0,1,194.972-1.279Zm25.48-9.22v-.584h-6.867v.584a4.752,4.752,0,0,1,.643.044q.321.044.672.1a1.938,1.938,0,0,1,1.461.906,4.916,4.916,0,0,1,.234,1.812V3.732l-11.63-14.815h-5.493v.584a5.542,5.542,0,0,1,1.11.088,2.275,2.275,0,0,1,1.695,1.052A4.685,4.685,0,0,1,202.8-7.4V4.462a8.367,8.367,0,0,1-.117,1.9,1.973,1.973,0,0,1-1.4,1.052,4.833,4.833,0,0,1-1.4.263v.584h6.984V7.677a4.682,4.682,0,0,1-1.49-.234,2.406,2.406,0,0,1-1.315-.789,5.407,5.407,0,0,1-.263-2.192V-8.219L217,8.612h.555V-7.518a4.836,4.836,0,0,1,.2-1.782,2,2,0,0,1,1.373-.964A6.058,6.058,0,0,1,220.452-10.5Zm16.1,13.675a5.048,5.048,0,0,0-.614-2.484A6.679,6.679,0,0,0,233.6-1.645q-.292-.146-1.037-.541t-1.972-1.008a25.151,25.151,0,0,1-2.981-1.666,3.537,3.537,0,0,1-1.724-2.747,2.736,2.736,0,0,1,.263-1.213,2.835,2.835,0,0,1,.73-.935,3.468,3.468,0,0,1,1.081-.614,3.881,3.881,0,0,1,1.315-.219,4.914,4.914,0,0,1,2.864.964,6.182,6.182,0,0,1,2.338,4.179h.584v-5.873h-.584a3.134,3.134,0,0,1-.321.993,1.293,1.293,0,0,1-.526.409,6.779,6.779,0,0,0-4.471-1.578,5.478,5.478,0,0,0-3.769,1.346,4.75,4.75,0,0,0-1.578,3.629,5.02,5.02,0,0,0,.584,2.37,6.5,6.5,0,0,0,2.308,2.312q.877.556,2.922,1.58.906.439,1.519.761t.935.527a4.774,4.774,0,0,1,1.87,1.961,3.028,3.028,0,0,1,.292,1.317,3.085,3.085,0,0,1-1.256,2.576,4.288,4.288,0,0,1-2.805.907,5.523,5.523,0,0,1-2.864-.76q-2.133-1.315-2.893-5.055h-.614v6.38h.614a2.914,2.914,0,0,1,.321-.959,1.31,1.31,0,0,1,.468-.482,9.157,9.157,0,0,0,3.565,1.555,8.34,8.34,0,0,0,1.695.169,6.558,6.558,0,0,0,4.3-1.461A4.95,4.95,0,0,0,236.553,3.177ZM258.906-10.5v-.584h-6.633v.584a5.04,5.04,0,0,1,1.315.234,2.073,2.073,0,0,1,1.227.847,5.467,5.467,0,0,1,.292,2.279V.079a10.785,10.785,0,0,1-.762,4.821A5.076,5.076,0,0,1,252,6.946a7.881,7.881,0,0,1-3.076.614,4.9,4.9,0,0,1-4.336-1.9q-.967-1.315-.967-5.347V-6.963a9.182,9.182,0,0,1,.234-2.6q.409-.935,2.1-.935h.555v-.584h-8.532v.584h.584a4.247,4.247,0,0,1,1.2.117,1.315,1.315,0,0,1,.789.76,7.455,7.455,0,0,1,.321,2.659V-.184q0,1.987.029,2.075a7.565,7.565,0,0,0,.584,3.185q1.636,3.565,7.013,3.565,4.821,0,6.662-3.185A11.1,11.1,0,0,0,256.1.2V-6.963a6.62,6.62,0,0,1,.234-2.221,2.274,2.274,0,0,1,1.256-1.023,4.091,4.091,0,0,1,.614-.19A4.849,4.849,0,0,1,258.906-10.5ZM277.228,2.826l-.584-.058a8.054,8.054,0,0,1-1.987,3.565,6.324,6.324,0,0,1-4,1.023h-1.432a6.17,6.17,0,0,1-2.192-.234,1.489,1.489,0,0,1-.731-1.229,2.6,2.6,0,0,1-.029-.5V-6.782a9.811,9.811,0,0,1,.2-2.634,1.093,1.093,0,0,1,.263-.468,1.954,1.954,0,0,1,1.373-.468,6.908,6.908,0,0,1,1.519-.147v-.584H260.6v.584h.584a3.622,3.622,0,0,1,1.519.234q.818.468.818,3.3V4.024a9,9,0,0,1-.234,2.6q-.409,1.052-2.045,1.052H260.6v.584h15.721Zm19.2-9.351-.146-4.558h-17.3l-.146,4.558h.584a5.8,5.8,0,0,1,.774-2.44,2.483,2.483,0,0,1,1.476-1.1,9.852,9.852,0,0,1,1.958-.117h2.6V4.047q0,2.576-.555,3.1a2.321,2.321,0,0,1-1.695.527h-.847v.584h8.912V7.677h-.789a3.013,3.013,0,0,1-1.432-.263q-.847-.5-.847-3.366V-10.177H291.9a4.1,4.1,0,0,1,2.688.672,5.066,5.066,0,0,1,1.286,2.98ZM306.74,8.261V7.677H306.1a2.865,2.865,0,0,1-1.578-.365,1.942,1.942,0,0,1-.672-1.5,3.083,3.083,0,0,1-.029-.555V-6.963a12.882,12.882,0,0,1,.146-2.367,1.694,1.694,0,0,1,.38-.7,2.863,2.863,0,0,1,1.841-.468h.555v-.584H298.15v.584h.555a3.329,3.329,0,0,1,1.636.321,1.858,1.858,0,0,1,.7,1.461q.029.146.029,1.753V4.024q0,2.63-.555,3.156a2.6,2.6,0,0,1-1.724.5h-.643v.584ZM328.656-10.5v-.584h-6.867v.584a4.753,4.753,0,0,1,.643.044q.321.044.672.1a1.938,1.938,0,0,1,1.461.906,4.915,4.915,0,0,1,.234,1.812V3.732l-11.63-14.815h-5.493v.584a5.542,5.542,0,0,1,1.11.088,2.275,2.275,0,0,1,1.695,1.052,4.685,4.685,0,0,1,.526,1.958V4.462a8.369,8.369,0,0,1-.117,1.9,1.973,1.973,0,0,1-1.4,1.052,4.833,4.833,0,0,1-1.4.263v.584h6.984V7.677a4.682,4.682,0,0,1-1.49-.234,2.406,2.406,0,0,1-1.315-.789A5.408,5.408,0,0,1,312,4.462V-8.219L325.208,8.612h.555V-7.518a4.835,4.835,0,0,1,.2-1.782,2,2,0,0,1,1.373-.964A6.058,6.058,0,0,1,328.656-10.5Zm2.484,9.409a9.349,9.349,0,0,0,2.476,6.575A9.8,9.8,0,0,0,341.3,8.641a12.278,12.278,0,0,0,3.99-.666A27.262,27.262,0,0,1,348.672,7V3.031q0-.877.015-1.4a5.317,5.317,0,0,1,.044-.672,1.639,1.639,0,0,1,1.227-1.373,4.69,4.69,0,0,1,1.14-.146v-.614h-7.86v.614h.409a3.288,3.288,0,0,1,1.4.2A1.588,1.588,0,0,1,345.837.81a8.605,8.605,0,0,1,.088,1.519,16.022,16.022,0,0,1-.2,3.886,4.329,4.329,0,0,1-1.812,1.14,6.387,6.387,0,0,1-2.367.438,6.452,6.452,0,0,1-5.61-3.268,11.037,11.037,0,0,1-1.519-6.155,11.129,11.129,0,0,1,1.578-6.185,6.068,6.068,0,0,1,5.435-2.83,6.072,6.072,0,0,1,4.354,1.636A7.91,7.91,0,0,1,348-4.859h.584l-.263-6.282h-.584a2.781,2.781,0,0,1-.19.862.944.944,0,0,1-.307.394,1.052,1.052,0,0,1-.7.292,11.473,11.473,0,0,0-2.893-1.549,8.517,8.517,0,0,0-2.513-.351,9.222,9.222,0,0,0-8.065,4.325A10.7,10.7,0,0,0,331.139-1.09Z" transform="translate(-0.116 96.785)" fill="#fff" stroke="#fff" stroke-width="0.5"/>
      <path id="パス_2" data-name="パス 2" d="M92.867,29.029v-2.1H90.979a11.35,11.35,0,0,1-3.984-.629q-3.146-1.153-4.089-2.936-.944-1.992-.944-9.437V-25.7q0-7.025.839-9.227,1.468-3.355,7.654-3.355h2.412v-2.1H72.421L47.362,15.5,22.093-40.382H1.647v2.1H3.325a15.465,15.465,0,0,1,5.767.944q2.307,1.258,2.936,5.347.1.734.157,2.307t.052,3.984V12.043q0,7.444-.944,9.751-.734,2.1-4.823,3.879a14.477,14.477,0,0,1-4.823,1.258v2.1H26.182v-2.1a12.858,12.858,0,0,1-2.621-.472,18,18,0,0,1-2.412-.891q-3.67-1.782-4.613-3.775-.839-2.2-.839-9.541V-31.26L42.958,29.029H44.95L72.106-31.26V13.93q0,7.13-.839,9.332-1.468,3.67-7.235,3.67H61.516v2.1Z" transform="translate(117.437 41.64)" fill="#fff" stroke="#fff" stroke-width="0.5"/>
      <path id="パス_3" data-name="パス 3" d="M76.293-38.285v-2.1h-23.8v2.1a18.085,18.085,0,0,1,4.718.839,7.438,7.438,0,0,1,4.4,3.041q1.049,1.782,1.048,8.178v25.9q0,12.372-2.733,17.3a18.213,18.213,0,0,1-8.409,7.34,28.279,28.279,0,0,1-11.037,2.2q-10.827,0-15.559-6.815Q21.456,14.979,21.456.51V-25.6q0-7.025.839-9.332,1.468-3.355,7.549-3.355h1.992v-2.1H1.22v2.1h2.1a15.241,15.241,0,0,1,4.3.419,4.718,4.718,0,0,1,2.831,2.726Q11.6-32.518,11.6-25.6V-1.273q0,7.13.1,7.444A27.144,27.144,0,0,0,13.8,17.6q5.872,12.792,25.164,12.792,17.3,0,23.906-11.429Q66.227,13.092,66.227.09V-25.6q0-6.081.839-7.969a8.161,8.161,0,0,1,4.509-3.67,14.676,14.676,0,0,1,2.2-.682A17.4,17.4,0,0,1,76.293-38.285Z" transform="translate(252.919 41.64)" fill="#fff" stroke="#fff" stroke-width="0.5"/>
      <ellipse id="楕円形_1" data-name="楕円形 1" cx="8.653" cy="7.572" rx="8.653" ry="7.572" transform="translate(87.903 59.503)" fill="#fff"/>
      <circle id="楕円形_2" data-name="楕円形 2" cx="7.572" cy="7.572" r="7.572" transform="translate(226.355 59.503)" fill="#fff"/>
      <circle id="楕円形_3" data-name="楕円形 3" cx="7.572" cy="7.572" r="7.572" transform="translate(334.52 59.503)" fill="#fff"/>
    </g>
  </g>
</svg>
