<svg xmlns="http://www.w3.org/2000/svg" width="519.51" height="267.535" viewBox="0 0 519.51 267.535">
  <path id="中マド_7" data-name="中マド 7" d="M519.51,0V0h0l-106.665,106.2H360.952v14.43H398.43l-125.921,126.9v19.651l146.677-146.55H505.1v146.9H519.51V0h0V0ZM433.6,106.207h0l71.5-71.572v71.573H433.6ZM247.362,0H14.414l.009,146.9h85.914L247.363,0h0Zm25.148,0h-5.666L121.094,146.9h37.477v14.43H106.68L.014,267.534V0H0L.014,267.534H252.666l19.843-20ZM85.925,161.327l0,0h-71.5l0,71.573,71.494-71.573Z" transform="translate(519.51 267.535) rotate(180)" fill="#131d46"/>
</svg>
