<svg xmlns="http://www.w3.org/2000/svg" width="24.748" height="17.401" viewBox="0 0 24.748 17.401">
  <path id="Icon_awesome-youtube" data-name="Icon awesome-youtube" d="M25.281,7.223a3.11,3.11,0,0,0-2.188-2.2c-1.93-.52-9.669-.52-9.669-.52s-7.739,0-9.669.52a3.11,3.11,0,0,0-2.188,2.2,32.621,32.621,0,0,0-.517,6,32.621,32.621,0,0,0,.517,6A3.063,3.063,0,0,0,3.755,21.38c1.93.52,9.669.52,9.669.52s7.739,0,9.669-.52a3.063,3.063,0,0,0,2.188-2.167,32.621,32.621,0,0,0,.517-6,32.621,32.621,0,0,0-.517-6ZM10.893,16.9V9.538l6.468,3.68L10.893,16.9Z" transform="translate(-1.05 -4.5)" fill="#0d1e5f"/>
</svg>
