<?xml version="1.0" standalone="no"?>
<!DOCTYPE svg PUBLIC "-//W3C//DTD SVG 20010904//EN"
 "http://www.w3.org/TR/2001/REC-SVG-20010904/DTD/svg10.dtd">
<svg version="1.0" xmlns="http://www.w3.org/2000/svg"
 width="94.000000pt" height="94.000000pt" viewBox="0 0 94.000000 94.000000"
 preserveAspectRatio="xMidYMid meet">
<metadata>
Created by potrace 1.14, written by Peter Selinger 2001-2017
</metadata>
<g transform="translate(0.000000,94.000000) scale(0.100000,-0.100000)"
fill="#000000" stroke="none">
<path d="M245 573 c-150 -357 -169 -395 -203 -415 -16 -10 -32 -15 -36 -11 -3
3 -6 -1 -6 -10 0 -15 14 -17 105 -17 90 0 105 2 105 16 0 11 -5 14 -16 10 -9
-3 -25 4 -39 18 -27 27 -24 50 20 149 l24 54 129 1 130 1 20 -42 c11 -23 28
-66 38 -94 16 -47 17 -54 4 -68 -8 -8 -24 -16 -35 -17 -11 -2 -21 -8 -23 -13
-3 -14 248 -19 261 -6 7 7 0 14 -19 21 -16 6 -36 18 -45 26 -9 8 -77 159 -150
335 -74 175 -139 319 -144 319 -6 0 -60 -116 -120 -257z m177 -173 c-13 -3
-66 -4 -117 -2 l-93 3 53 130 c30 71 57 135 61 140 4 6 32 -51 64 -127 l57
-139 -25 -5z"/>
<path d="M877 188 c-22 -12 -22 -55 1 -66 23 -13 62 3 62 25 0 36 -34 58 -63
41z"/>
</g>
</svg>
